<svg version="1.1" xmlns="http://www.w3.org/2000/svg" xmlns:xlink="http://www.w3.org/1999/xlink" width="44.8" height="55.3588" viewBox="0,0,44.8,55.3588"><g transform="translate(-215.5,-144.9412)"><g data-paper-data="{&quot;isPaintingLayer&quot;:true}" fill-rule="nonzero" stroke-linecap="butt" stroke-linejoin="miter" stroke-miterlimit="10" stroke-dasharray="" stroke-dashoffset="0" style="mix-blend-mode: normal"><g fill="#75d217" stroke="none"><path d="M242.9353,164.2447l-3.9981,0.1219l-0.4512,-14.793l3.9981,-0.122z" stroke-width="1.29202"/><path d="M242.3958,145.2396c1.1784,0.43 2.193,1.309 2.7634,2.5348c0.5704,1.2257 0.5895,2.568 0.1595,3.7464c-0.43,1.1784 -1.309,2.193 -2.5348,2.7634c-1.2258,0.5704 -2.568,0.5895 -3.7465,0.1595c-1.1784,-0.43 -2.1929,-1.309 -2.7633,-2.5348c-0.5704,-1.2258 -0.5895,-2.568 -0.1595,-3.7464c0.4299,-1.1785 1.309,-2.193 2.5348,-2.7634c1.2257,-0.5704 2.568,-0.5895 3.7464,-0.1595z" stroke-width="1"/></g><path d="M240.2,160.1c5.545,0 10.57,2.252 14.209,5.891c3.639,3.639 5.891,8.664 5.891,14.209c0,5.545 -2.252,10.57 -5.891,14.209c-3.639,3.639 -8.664,5.891 -14.209,5.891c-5.545,0 -10.57,-2.252 -14.209,-5.891c-3.639,-3.639 -5.891,-8.664 -5.891,-14.209c0,-5.545 2.252,-10.57 5.891,-14.209c3.639,-3.639 8.664,-5.891 14.209,-5.891z" fill="#75d217" stroke="none" stroke-width="1"/><path d="M240.1448,166.9948c3.7704,0 7.1876,1.5311 9.6613,4.0057c2.4745,2.4736 4.0056,5.8908 4.0056,9.6612c0,3.7705 -1.5311,7.1877 -4.0056,9.6613c-2.4737,2.4746 -5.8909,4.0056 -9.6613,4.0056c-3.7705,0 -7.1876,-1.531 -9.6613,-4.0056c-2.4746,-2.4736 -4.0056,-5.8908 -4.0056,-9.6613c0,-3.7704 1.531,-7.1876 4.0056,-9.6612c2.4737,-2.4746 5.8908,-4.0057 9.6613,-4.0057z" fill="#e3ffe5" stroke="#5fab13" stroke-width="1.8162"/><path d="M215.515,172.2c-0.009,0 -0.015,0 -0.015,0c0,0 0.006,0 0.015,0c0.009,0 0.021,0 0.035,0c0.014,0 0.026,0 0.035,0c0.009,0 0.015,0 0.015,0c0,0 -0.006,0 -0.015,0c-0.009,0 -0.021,0 -0.035,0c-0.014,0 -0.026,0 -0.035,0z" fill="#e9f8ff" stroke="none" stroke-width="1"/><path d="M240.25,173.2c2.069,0 3.944,0.84 5.302,2.198c1.358,1.358 2.198,3.233 2.198,5.302c0,2.069 -0.84,3.944 -2.198,5.302c-1.358,1.358 -3.233,2.198 -5.302,2.198c-2.069,0 -3.944,-0.84 -5.302,-2.198c-1.358,-1.358 -2.198,-3.233 -2.198,-5.302c0,-2.069 0.84,-3.944 2.198,-5.302c1.358,-1.358 3.233,-2.198 5.302,-2.198z" fill="#000000" stroke="none" stroke-width="1"/><path d="M240.45011,172.14749c2.331,0 4.444,0.356 5.973,0.931c1.53,0.574 2.477,1.368 2.477,2.244c0,0.876 -0.947,1.67 -2.477,2.244c-1.529,0.575 -3.642,0.931 -5.973,0.931c-2.331,0 -4.444,-0.356 -5.973,-0.931c-1.53,-0.574 -2.477,-1.368 -2.477,-2.244c0,-0.876 0.947,-1.67 2.477,-2.244c1.529,-0.575 3.642,-0.931 5.973,-0.931z" fill="#e3ffe5" stroke="none" stroke-width="1"/><path d="M257,185c0.028,0 0.053,0.011 0.071,0.029c0.018,0.018 0.029,0.043 0.029,0.071c0,0.028 -0.011,0.053 -0.029,0.071c-0.018,0.018 -0.043,0.029 -0.071,0.029c-0.028,0 -0.053,-0.011 -0.071,-0.029c-0.018,-0.018 -0.029,-0.043 -0.029,-0.071c0,-0.028 0.011,-0.053 0.029,-0.071c0.018,-0.018 0.043,-0.029 0.071,-0.029z" fill="#e3ffe5" stroke="none" stroke-width="1"/></g></g></svg>